# xmcd CD database file
#
# Track frame offsets:
#	150
#	11893
#	24278
#	34708
#	47871
#	56912
#	66784
#	76177
#	91102
#	103818
#	113302
#	121564
#	135821
#
# Disc length: 1969 seconds
#
# Revision: 0
# Processed by: cddbd v1.4PL0 Copyright (c) Steve Scherf et al.
# Submitted via: Feurio! 1.66.2ß - http://www.feurio.com
#
DISCID=9307af0d
DTITLE=happy creatures - j
DYEAR=1900
DGENRE=
TTITLE0=The King
TTITLE1=Reggies Party
TTITLE2=To Thee
TTITLE3=Fish
TTITLE4=Jimmy Bill
TTITLE5=Zen Knight
TTITLE6=Reginald Recalled
TTITLE7=Joe Nerd
TTITLE8=Jibron
TTITLE9=Hammer
TTITLE10=Bob Chambers
TTITLE11=Jimmy John
TTITLE12=Eddys Moped
EXTD=
EXTT0=
EXTT1=
EXTT2=
EXTT3=
EXTT4=
EXTT5=
EXTT6=
EXTT7=
EXTT8=
EXTT9=
EXTT10=
EXTT11=
EXTT12=
PLAYORDER=
